<svg xmlns="http://www.w3.org/2000/svg" xmlns:xlink="http://www.w3.org/1999/xlink" viewBox="0 0 1006.77 651.91"><defs><style>.cls-1{fill:url(#linear-gradient);}.cls-2{fill:url(#linear-gradient-2);}.cls-3{fill:url(#linear-gradient-3);}.cls-4{fill:url(#linear-gradient-4);}.cls-5{fill:url(#linear-gradient-5);}.cls-6{fill:url(#linear-gradient-6);}.cls-7{fill:url(#linear-gradient-7);}.cls-8{fill:url(#linear-gradient-8);}.cls-9{fill:url(#linear-gradient-9);}.cls-10{fill:url(#linear-gradient-10);}.cls-11{fill:url(#linear-gradient-11);}.cls-12{fill:url(#linear-gradient-12);}.cls-13{fill:url(#linear-gradient-13);}.cls-14{fill:url(#linear-gradient-14);}.cls-15{fill:url(#linear-gradient-15);}</style><linearGradient id="linear-gradient" x1="639.08" y1="427.25" x2="724.86" y2="427.25" gradientUnits="userSpaceOnUse"><stop offset="0" stop-color="#00144d"/><stop offset="0.36" stop-color="#062165"/><stop offset="1" stop-color="#11378c"/></linearGradient><linearGradient id="linear-gradient-2" x1="705.89" y1="376.24" x2="724.86" y2="376.24" xlink:href="#linear-gradient"/><linearGradient id="linear-gradient-3" x1="849.9" y1="283.2" x2="922.96" y2="283.2" xlink:href="#linear-gradient"/><linearGradient id="linear-gradient-4" x1="669.51" y1="495.48" x2="1027.76" y2="344.41" gradientUnits="userSpaceOnUse"><stop offset="0" stop-color="#f77b1e"/><stop offset="0.22" stop-color="#f77f1e"/><stop offset="0.45" stop-color="#f88c1f"/><stop offset="0.68" stop-color="#f9a11f"/><stop offset="0.92" stop-color="#fbbe21"/><stop offset="1" stop-color="#fcca21"/></linearGradient><linearGradient id="linear-gradient-5" x1="771.52" y1="406.04" x2="998.39" y2="311.76" xlink:href="#linear-gradient-4"/><linearGradient id="linear-gradient-6" x1="852.76" y1="335.75" x2="974.53" y2="293.2" xlink:href="#linear-gradient-4"/><linearGradient id="linear-gradient-7" x1="366.81" y1="78.27" x2="334.26" y2="36.81" gradientUnits="userSpaceOnUse"><stop offset="1" stop-color="#f77b1e"/><stop offset="1" stop-color="#f77f1e"/><stop offset="1" stop-color="#f88c1f"/><stop offset="1" stop-color="#f9a11f"/><stop offset="1" stop-color="#fbbe21"/><stop offset="1" stop-color="#fcca21"/></linearGradient><linearGradient id="linear-gradient-8" x1="458.14" y1="119.87" x2="477.05" y2="78.7" xlink:href="#linear-gradient-7"/><linearGradient id="linear-gradient-9" x1="213.31" y1="48.61" x2="160.49" y2="88.39" gradientUnits="userSpaceOnUse"><stop offset="0" stop-color="#f77b1e"/><stop offset="0.12" stop-color="#f88d1f"/><stop offset="0.33" stop-color="#faa820"/><stop offset="0.54" stop-color="#fbbb20"/><stop offset="0.77" stop-color="#fcc621"/><stop offset="1" stop-color="#fcca21"/></linearGradient><linearGradient id="linear-gradient-10" x1="114.87" y1="119.92" x2="65.56" y2="184.36" gradientUnits="userSpaceOnUse"><stop offset="0" stop-color="#f77b1e"/><stop offset="0.11" stop-color="#f88c1f"/><stop offset="0.33" stop-color="#faa720"/><stop offset="0.55" stop-color="#fbbb20"/><stop offset="0.77" stop-color="#fcc621"/><stop offset="1" stop-color="#fcca21"/></linearGradient><linearGradient id="linear-gradient-11" x1="35.94" y1="265.91" x2="38.61" y2="317.04" xlink:href="#linear-gradient-4"/><linearGradient id="linear-gradient-12" x1="16.6" y1="396.4" x2="64.56" y2="459.99" xlink:href="#linear-gradient-4"/><linearGradient id="linear-gradient-13" x1="734.62" y1="335.73" x2="819.78" y2="335.73" xlink:href="#linear-gradient"/><linearGradient id="linear-gradient-14" x1="339.77" y1="148.27" x2="137.5" y2="505.17" xlink:href="#linear-gradient-4"/><linearGradient id="linear-gradient-15" x1="301.48" y1="572.34" x2="794.36" y2="278.25" gradientUnits="userSpaceOnUse"><stop offset="0" stop-color="#fc0021"/><stop offset="0.08" stop-color="#fb1321"/><stop offset="0.27" stop-color="#fa3820"/><stop offset="0.46" stop-color="#f9551f"/><stop offset="0.64" stop-color="#f86a1e"/><stop offset="0.83" stop-color="#f7771e"/><stop offset="1" stop-color="#f77b1e"/></linearGradient></defs><g id="Layer_2" data-name="Layer 2"><g id="Layer_1-2" data-name="Layer 1"><path class="cls-1" d="M643.08,395.08h81.78l-3.72,12.31h-7.56l-2.69,6.66q-9.61,23.59-9.62,29.23,0,1.92,6,8.58l1.66,1.8a23.7,23.7,0,0,0,2.57,2.43c.85.86,1.28,1.46,1.28,1.8a1.61,1.61,0,0,1-.26.9c-.17.25-.34.38-.51.38a5.29,5.29,0,0,1-2.82-1.15,16.44,16.44,0,0,1-3.72-3.08q-11.28-11.65-13.2-17.56-4.23,0-10.13-4.74t-5.76-8.33a23.9,23.9,0,0,0,6.28,1.15,16.36,16.36,0,0,0,6.66-1.41,15.23,15.23,0,0,0,5.51-4.1q3-9.1,4.36-12.56H681.79q-1.66,6.8-7.18,19.1a17.32,17.32,0,0,1-7.18,8.45,16.44,16.44,0,0,1-10.76,2.44q4.74,8.34,17.17,20.25a2.17,2.17,0,0,1,.39.51,1.29,1.29,0,0,1,.13.52.93.93,0,0,1-.77.77q-4,0-14.62-12.44l-7.94-9.1a111.75,111.75,0,0,1-8.33-10.25c-2-2.91-3.12-5.21-3.46-6.92a5.42,5.42,0,0,1,.64-4.23,2.86,2.86,0,0,1,2.94-1.67q2.82,0,6,2.95a25.79,25.79,0,0,1,5.51,7.82q3.58,0,7.18-5.13a38.72,38.72,0,0,0,5.64-13.07H639.36Z"/><path class="cls-2" d="M716.78,367.14l8.08,10.13L714,385.34l-8.07-10.25Z"/><path class="cls-3" d="M853.61,251.16H923l-3.72,12.3h-7.56l-2.7,6.67q-9.6,23.58-9.61,29.22,0,1.92,6,8.59l1.66,1.79a24.72,24.72,0,0,0,2.57,2.44c.85.85,1.28,1.45,1.28,1.79a1.61,1.61,0,0,1-.26.9c-.17.26-.34.38-.51.38a5.29,5.29,0,0,1-2.82-1.15A16.18,16.18,0,0,1,903.6,311a90.27,90.27,0,0,1-9.1-10.63A32.08,32.08,0,0,1,874.25,307a30.38,30.38,0,0,1-15.51-4.61q-7.82-4.62-7.82-9.1a8.08,8.08,0,0,1,2.57-5.64,18.17,18.17,0,0,1,6.92-4,27.33,27.33,0,0,1-7.44-5q-2.82-2.68-2.82-5a4.79,4.79,0,0,1,2.69-4.35,16.44,16.44,0,0,1,7.82-1.54l8.72.38a15.32,15.32,0,0,0,3-.25c.85-.26,1.49-5.68,1.92-6,.34-.59.68,3.34,1,1.54H849.9Zm32.94,17.43c-.42,1.54-.68,2.56-.76,3.07a8.56,8.56,0,0,1-1.54,3.72,3.31,3.31,0,0,1-2.57,1.41l-12.81-.38a19,19,0,0,0-5.77.77c-1.54.51-2.31,1.11-2.31,1.79a3.26,3.26,0,0,0,.51,1.54,14.54,14.54,0,0,0,1.67,1.66l4-.76a25.88,25.88,0,0,1,3.72-.52c1.28,0,2.61.77,4,2.31a18.86,18.86,0,0,1,3.21,6.15,64.32,64.32,0,0,0-12.56,4.74q-4.87,2.57-4.87,5a1.84,1.84,0,0,0,.77,1.67,2.77,2.77,0,0,0,2.05.64q4,0,10.76-3.2a124.06,124.06,0,0,0,15.9-9.36q0-6.29,7.69-25.38h-9.74Z"/><path class="cls-4" d="M649,602.15c-28.49-39.51-56.38-114.21,9.29-133.09a95.53,95.53,0,0,1,23-3.29c28.78-.57,55.86,3.82,83.85,6.64,39.44,4.16,79.64,8,118.83,1.14,33.14-5.86,61.57-20.61,80.46-49.07.68-1.13,3-4.82,3.74-6,1.72-3.21,4-7.16,5.46-10.51a168.69,168.69,0,0,0,10.11-27.24c6.77-24.11,9.52-49.6,10.59-74.61.62-13.23.69-28,.5-41.21q-.09-5.19-.09-10.39c1.29,4.76,2.45,10.34,3.63,15.18,17.4,80.35,14.14,181.7-71.35,220.92C862.52,519,787.59,504.59,720.7,494c-22.24-3-53.26-10.3-73,1.7-30,18.9-9.22,79.91,1.28,106.44Z"/><path class="cls-5" d="M752.29,465.77c-17.72-21.93-29.19-59.27,3.42-73.79,17.41-7.39,36.2-5,54.27-3.69,23.9,2,48.88,5.07,72.15,3.27,22.6-1.7,43.08-8.05,58.17-24.4,26.13-29.54,29.35-73.93,33.62-112.07,18.91,75.92,1,157-89.67,163.72-31,2.38-59.74-3.56-89.48-8.47C782,408.51,765.16,405,754,412.78c-13.46,10.72-6.12,38.49-1.75,53Z"/><path class="cls-6" d="M844.88,384c-13.7-17.21-26.7-53.45,1.94-63.24,7.79-2.47,16.14-1.88,23.8-1.59,17.41.87,35.6,4.3,51.7-.47,16.3-4.92,23.31-20.75,27.37-36.71,2.29-8.76,3.66-18,5.24-27.4a111.48,111.48,0,0,1,2.77,14.05c4.75,34.2-6.92,66.17-45,70.54-19.11,2.44-38.13-2.28-56.57-3.12-7.11-.37-12,1.8-13.76,8.46a40.35,40.35,0,0,0-1.28,12.13c.23,8.8,1.86,18,3.78,27.35Z"/><path class="cls-7" d="M364,65.46c-4,5.88-15.25,12.41-25.17,11.79,13.71-9.17,14.4-36.89-6.68-60.91A111.53,111.53,0,0,0,314.39,0a113.09,113.09,0,0,1,20.4,11.09C361.83,29.5,373.09,52.13,364,65.46Z"/><path class="cls-8" d="M468.92,120.26c-7,1.48-19.61-1.56-26.35-8.87,16.25,2.84,35.9-16.72,37.25-48.66a111.68,111.68,0,0,0-1.57-24.09,113.13,113.13,0,0,1,7.09,22.12C492.17,92.75,484.69,116.88,468.92,120.26Z"/><path class="cls-9" d="M220.5,90.18c-2.3,6.73-11.41,16-21.15,18,10.79-12.47,4.12-39.39-22.58-57a111.57,111.57,0,0,0-21.46-11,112.82,112.82,0,0,1,22.61,5.29C208.87,56.09,225.72,74.92,220.5,90.18Z"/><path class="cls-10" d="M115.74,172c1.09,7-2.66,19.48-10.34,25.8,3.76-16.06-14.67-36.79-46.48-39.93a111.49,111.49,0,0,0-24.14.2,113.46,113.46,0,0,1,22.48-5.83C89.59,147.24,113.26,156.07,115.74,172Z"/><path class="cls-11" d="M69.58,304.72c5.5,4.5,11,16.28,9.52,26.11-7.92-14.47-35.47-17.6-61.26,1.28A111,111,0,0,0,0,348.37,113.24,113.24,0,0,1,12.85,329C33.57,303.72,57.1,294.49,69.58,304.72Z"/><path class="cls-12" d="M104.84,454.05c6.9,1.72,16.92,10,19.77,19.54-13.35-9.69-39.6-.75-54.84,27.34a111.85,111.85,0,0,0-9.18,22.32,112.68,112.68,0,0,1,3.35-23C71.86,468.54,89.19,450.14,104.84,454.05Z"/><path class="cls-13" d="M803,319.89c-7-9.78-15.2-20.6-26.8-24.23-6.89-2.15-14.05-.92-21.1-.69a37.17,37.17,0,0,1-9.18-.63,31.29,31.29,0,0,1-4.43-1.42c-3.43-1.29-6.14-5.91-6.83-5.4s3.78,6.26,3.91,6.43c3.34,4.55,7,9.14,12.42,11.21,5.25,2,10.85,1.94,16.37,1.6,7.24-.46,14.39-1.05,21.11,2.23,5.22,2.54,9.14,6.42,12.58,10.9H759L755.3,332.2h39L789.91,344a21.82,21.82,0,0,0-6.15-4.88,21.49,21.49,0,0,0-8-2.29q-9.48,0-15.26,3.2c-3.83,2.13-5.76,5-5.76,8.58q0,7.57,7.94,15.13t15.65,7.69a25.56,25.56,0,0,0,6.92-.9,13.42,13.42,0,0,0,5.12-2.68q2.31,3.82,10,11.91a16.53,16.53,0,0,0,3.72,3.07A5.26,5.26,0,0,0,807,384c.16,0,.34-.12.52-.38a1.67,1.67,0,0,0,.24-.91c0-.34-.42-.93-1.28-1.79a23.35,23.35,0,0,1-2.55-2.43l-1.68-1.79q-6-6.68-6-8.6,0-5.62,9.61-29.21l2.7-6.67h7.56l3.72-12.31Zm-15.94,33.33a45.09,45.09,0,0,1-10.76,6.41,26.52,26.52,0,0,1-10.14,2.18,5.36,5.36,0,0,1-2.42-.52c-.7-.42-1-.89-1-1.41q0-5.37,6.55-9.87a24.78,24.78,0,0,1,14.35-4.48,12,12,0,0,1,5.51,1Q787.47,351.68,787.09,353.22Z"/><path class="cls-14" d="M301.84,540.77c-105,.88-193.5-83.32-208.65-185.63-16.55-107.63,46-213.67,148.42-250.82C318.11,76,408.24,92.51,467.23,149.41a193.47,193.47,0,0,1,33.55,42.67,263.79,263.79,0,0,0-41.44-32.61,228.89,228.89,0,0,0-64.25-27.61c-5.67-1.36-12.65-2.81-18.39-3.81-6.92-1.21-14.58-1.87-21.61-2.44-7.06-.33-14.57-.59-21.6-.31-1.59.07-4.63.28-7,.42-1.48.1-2.95.22-4.43.37-2.36.24-5.56.54-6.92.7-55.8,6.73-108.33,37-141.49,82.44-42.29,56.5-51.54,134.12-24.86,199.36,15.37,38.66,42.51,72.32,76.36,96.42,23.29,16.48,48.85,28,76.66,35.76Z"/><path class="cls-15" d="M752.49,578.8c-13.67-.58-26.59,6.36-37.27,14.89s-19.9,18.85-31,26.88c-24.12,17.52-54.69,20.58-83.14,13.45-33.51-8.39-58.5-22.32-84.27-39.91-11.56-7.9-21.4-17.92-31.5-27.61l-60.93-58.88c-6.37-6.22-12.6-12.27-18.19-17.57l-32.88-31.77c-18.32-18-36.44-36.12-55.58-53.71l-2.06-2c-.4-.4-.77-.79-1.13-1.18,4.27-1.88,8.45-3.85,12.51-5.85a196.49,196.49,0,0,0,20.51-11.66c.78.58,1.56,1.17,2.36,1.72,30.24,21.07,69.34,27,104.07,14.76q25,23.53,50,23.56c5.52,0,4.62-.61,9.64-1.5l-3.5,12.89A45.07,45.07,0,0,0,515.4,471c10.1,16.19,26,35.05,42.13,52.57,5.79,6.5,13.82,3.42,10.85-.14l-8.14-8c-5.22-6.08-10.32-12.16-14-17-9.62-12.51-10.62-29.1-4.83-43.78l26.15-66.26v0c8.82-23.66,19-51.18,27.89-73l9-22.23h25.2l12.4-41H428.54l-12.39,41H557l-14.54,39.31a71.65,71.65,0,0,0-20.51-16.23,70.85,70.85,0,0,0-26.48-7.69q-31.62,0-50.84,10.67t-19.23,28.63a52.13,52.13,0,0,0,4.63,21,.35.35,0,0,0-.11,0A111.74,111.74,0,0,1,361.13,374c1.71-1.39,3.41-2.8,5.06-4.26,21.67-19.14,47.61-54.38,34.58-84.73-5.27-12.27-16.14-22.61-25.82-31.35-7.13-6.44-14.7-13.06-24.19-15.56a90.33,90.33,0,0,0-53.12,2.45,100.26,100.26,0,0,0-23.59,12.33c-1.94,1.34,11.73,15.28,12.94,16.47,1.71,1.69,13.63,14.92,16.47,12.94,14.45-10.05,31.23-16.51,48.89-17.52A85.17,85.17,0,0,1,374,266.51c2.39,14.65-3.76,29.74-11,42.23a128.76,128.76,0,0,1-26.9,32.19c-14.94,13-32.39,23.2-50.77,30.9-.45-.41-.87-.84-1.32-1.24-11.2-10.25-25.68-23.87-42.25-22-6.81.76-12.18,5.36-15,11.45-3.26,7-2.82,13.1,1.72,19.32,8,11,19.06,22.67,31,29.39,7.14,4,14.86,4.75,22.86,3.24A120.25,120.25,0,0,0,296,408.49l.43.4c.1.11.19.21.3.31l1.67,1.54,15.76,14.8c8.91,8.43,18,17.13,25.94,24.53,27.21,25.42,54.91,51.77,82,77.3q23.55,22.18,47.13,44.32c14.32,13.49,28.68,26.94,44.87,38.14,25.84,17.89,55.06,31.69,85.9,38.22,31.68,6.7,64.58,4.84,94.86-6.88a162.08,162.08,0,0,0,23.62-11.42c12.67-7.45,24.46-16.67,38.23-21.83s30.59-5.5,41.87,3.93C787.77,595.44,772.12,579.63,752.49,578.8ZM473.65,352.57a82.78,82.78,0,0,1,47.85-14.95q12,0,18.37,3.42-5.55,17.08-6.84,22.21a148,148,0,0,1-35.88,21.36q-17.53,7.27-33.76,7.27a18.11,18.11,0,0,1-8.12-1.7c-2.27-1.44-3.41-3-3.41-4.71Q451.86,367.52,473.65,352.57Z"/></g></g></svg>