<svg xmlns="http://www.w3.org/2000/svg" xmlns:xlink="http://www.w3.org/1999/xlink" viewBox="0 0 972.36 300"><defs><style>.cls-1{fill:url(#linear-gradient);}.cls-2{fill:url(#linear-gradient-2);}.cls-3{fill:url(#linear-gradient-3);}.cls-4{fill:url(#linear-gradient-4);}.cls-5{fill:url(#linear-gradient-5);}.cls-6{fill:url(#linear-gradient-6);}.cls-7{fill:url(#linear-gradient-7);}.cls-8{fill:url(#linear-gradient-8);}.cls-9{fill:url(#linear-gradient-9);}.cls-10{fill:url(#linear-gradient-10);}.cls-11{fill:url(#linear-gradient-11);}.cls-12{fill:url(#linear-gradient-12);}.cls-13{fill:url(#linear-gradient-13);}.cls-14{fill:url(#linear-gradient-14);}.cls-15{fill:url(#linear-gradient-15);}.cls-16{fill:url(#linear-gradient-16);}.cls-17{fill:url(#linear-gradient-17);}.cls-18{fill:url(#linear-gradient-18);}</style><linearGradient id="linear-gradient" x1="569.54" y1="178.23" x2="724.82" y2="178.23" gradientUnits="userSpaceOnUse"><stop offset="0" stop-color="#11378c"/><stop offset="0.34" stop-color="#103689"/><stop offset="0.56" stop-color="#0e3181"/><stop offset="0.74" stop-color="#0a2972"/><stop offset="0.9" stop-color="#041d5d"/><stop offset="1" stop-color="#00144d"/></linearGradient><linearGradient id="linear-gradient-2" x1="733.16" y1="178.23" x2="813.12" y2="178.23" xlink:href="#linear-gradient"/><linearGradient id="linear-gradient-3" x1="819.68" y1="178.23" x2="972.36" y2="178.23" xlink:href="#linear-gradient"/><linearGradient id="linear-gradient-4" x1="317.39" y1="196.78" x2="359.99" y2="196.78" gradientUnits="userSpaceOnUse"><stop offset="0" stop-color="#00144d"/><stop offset="0.36" stop-color="#062165"/><stop offset="1" stop-color="#11378c"/></linearGradient><linearGradient id="linear-gradient-5" x1="350.57" y1="173.34" x2="359.99" y2="173.34" xlink:href="#linear-gradient-4"/><linearGradient id="linear-gradient-6" x1="422.09" y1="130.59" x2="458.37" y2="130.59" xlink:href="#linear-gradient-4"/><linearGradient id="linear-gradient-7" x1="334.46" y1="231.86" x2="508.89" y2="158.3" gradientUnits="userSpaceOnUse"><stop offset="0" stop-color="#fcca21"/><stop offset="0.1" stop-color="#fbba20"/><stop offset="0.33" stop-color="#f99f1f"/><stop offset="0.55" stop-color="#f88b1f"/><stop offset="0.77" stop-color="#f77f1e"/><stop offset="1" stop-color="#f77b1e"/></linearGradient><linearGradient id="linear-gradient-8" x1="384.26" y1="189.31" x2="494.81" y2="143.37" xlink:href="#linear-gradient-7"/><linearGradient id="linear-gradient-9" x1="423.77" y1="155.25" x2="483.19" y2="134.49" xlink:href="#linear-gradient-7"/><linearGradient id="linear-gradient-10" x1="181.24" y1="36.28" x2="165.87" y2="16.71" gradientUnits="userSpaceOnUse"><stop offset="1" stop-color="#f77b1e"/><stop offset="1" stop-color="#f77f1e"/><stop offset="1" stop-color="#f88c1f"/><stop offset="1" stop-color="#f9a11f"/><stop offset="1" stop-color="#fbbe21"/><stop offset="1" stop-color="#fcca21"/></linearGradient><linearGradient id="linear-gradient-11" x1="228.63" y1="54.79" x2="237.41" y2="35.66" xlink:href="#linear-gradient-10"/><linearGradient id="linear-gradient-12" x1="104.23" y1="22.57" x2="79.23" y2="41.4" gradientUnits="userSpaceOnUse"><stop offset="0" stop-color="#f77b1e"/><stop offset="0.12" stop-color="#f88d1f"/><stop offset="0.33" stop-color="#faa820"/><stop offset="0.54" stop-color="#fbbb20"/><stop offset="0.77" stop-color="#fcc621"/><stop offset="1" stop-color="#fcca21"/></linearGradient><linearGradient id="linear-gradient-13" x1="55.3" y1="55.2" x2="30.75" y2="87.28" gradientUnits="userSpaceOnUse"><stop offset="0" stop-color="#f77b1e"/><stop offset="0.11" stop-color="#f88c1f"/><stop offset="0.33" stop-color="#faa720"/><stop offset="0.55" stop-color="#fbbb20"/><stop offset="0.77" stop-color="#fcc621"/><stop offset="1" stop-color="#fcca21"/></linearGradient><linearGradient id="linear-gradient-14" x1="17.99" y1="123.22" x2="19.21" y2="146.59" gradientUnits="userSpaceOnUse"><stop offset="0" stop-color="#f77b1e"/><stop offset="0.22" stop-color="#f77f1e"/><stop offset="0.45" stop-color="#f88c1f"/><stop offset="0.68" stop-color="#f9a11f"/><stop offset="0.92" stop-color="#fbbe21"/><stop offset="1" stop-color="#fcca21"/></linearGradient><linearGradient id="linear-gradient-15" x1="12.89" y1="181.82" x2="35.39" y2="211.65" xlink:href="#linear-gradient-14"/><linearGradient id="linear-gradient-16" x1="364.84" y1="154.72" x2="407.13" y2="154.72" xlink:href="#linear-gradient-4"/><linearGradient id="linear-gradient-17" x1="170.38" y1="67.23" x2="75.57" y2="234.53" gradientUnits="userSpaceOnUse"><stop offset="0" stop-color="#f77b1e"/><stop offset="0.2" stop-color="#f8841e"/><stop offset="0.52" stop-color="#f99c1f"/><stop offset="0.93" stop-color="#fcc221"/><stop offset="1" stop-color="#fcca21"/></linearGradient><linearGradient id="linear-gradient-18" x1="149.02" y1="269.12" x2="391.02" y2="124.73" gradientUnits="userSpaceOnUse"><stop offset="0" stop-color="#fc0021"/><stop offset="0.08" stop-color="#fb1321"/><stop offset="0.27" stop-color="#fa3820"/><stop offset="0.46" stop-color="#f9551f"/><stop offset="0.64" stop-color="#f86a1e"/><stop offset="0.83" stop-color="#f7771e"/><stop offset="1" stop-color="#f77b1e"/></linearGradient></defs><g id="Layer_2" data-name="Layer 2"><g id="Layer_1-2" data-name="Layer 1"><path class="cls-1" d="M706.23,97.22a78.17,78.17,0,0,0-11.34,17.62q-8.34,18.09-11.07,22.19l-.69.73c-.36-.89-.64-1.57-.82-2q-3.82-10.86-6.29-15.08a29.25,29.25,0,0,0-7.38-8.09,44.58,44.58,0,0,0-28.29-9.77q-14.62,0-24.33,7.18t-9.71,18q0,20.28,34.59,27.63l23.1,4.95q49.34,10.5,49.34,46,0,19.78-16.88,33.23T654.7,253.21A163.88,163.88,0,0,1,619.85,249l-16-3.5a81,81,0,0,0-16-2.05,36.68,36.68,0,0,0-17.22,4.71l-1.1-1.69q17-22.56,23.79-43l2.46.6q2.87,18.94,17.22,29.44t37.59,10.5q18.31,0,29.11-7.48t10.8-20.15q0-14.59-15-24.13-10.8-6.75-44.29-12.55-25.83-4.45-37.45-14.84t-11.62-28.83q0-19.06,15.51-30.95T638,93.24q16,0,37.31,5.07,10,2.41,14.76,2.41,6.71,0,14.63-4.1Zm0,77q18.59,12.44,18.59,34,0,23.06-20.23,39t-49.21,16a122.64,122.64,0,0,1-26.65-2.66l-21.87-4.7a75.74,75.74,0,0,0-16.4-1.69A36.43,36.43,0,0,0,576.11,257l-1.65-3.5a38.12,38.12,0,0,1,14.49-2.9,93.71,93.71,0,0,1,18.73,2.17l21.05,4.47a128.09,128.09,0,0,0,26.52,2.65q27.33,0,46.54-15.38T721,207.25q0-18.47-14.76-32.33Zm-114.41-4.34,4.65,2.29Q601,179.27,622.85,184l22,4.83q22.41,5,29.87,8.51a21,21,0,0,1,10.59,10.79l-1,.49A39.11,39.11,0,0,0,671,199.41q-7.17-2.9-27.54-7.12-29.52-6-39.64-10.44T591.82,169.85Zm17.09,39.09Q614,230.66,636,239.7v1q-25.41-6.53-30.75-31.13Zm65.88-82.64q-15-14.11-32.25-14.12-10.39,0-17.23,5.31A16.41,16.41,0,0,0,618.48,131q0,8.92,13.8,18.34l1.1.6-.69,1q-18-7.12-18-20.63A18.46,18.46,0,0,1,622.31,115q7.65-5.91,20-5.92a45.39,45.39,0,0,1,20.57,4.41,28.06,28.06,0,0,1,12.92,12.36Zm39.92-24-1.23,1.81A166.47,166.47,0,0,0,703.91,120q-9.57,17.74-10.8,19.79l-.68.84-3.28-1.2.54-1.09q4-8,11.48-20.75l9.3-15.93.68-1Z"/><path class="cls-2" d="M733.16,95.89H798L779.63,112.3V237.89l17.23,12.79h-63.7l19-13.87V111Zm70.94,6.88L790.16,115V237.89l23,22.68H742l-3.41-3.25h66.43L786.33,239.1V113.87l15.45-13.51Z"/><path class="cls-3" d="M962.38,99.63l-1.5,2.3a329.41,329.41,0,0,0-21.32,37.88l-1.23,2.77-1.78-.84q-3.15-18.35-14.62-29.08a39.22,39.22,0,0,0-27.75-10.73q-17.37,0-29,13.39Q850.58,132,850.57,171.78q0,34.26,13.47,53.69t37.38,19.42q19.14,0,30.55-11.28t13.6-32.27q.55-5.07,4.65-5.07,5.32,0,5.33,7.84,0,11.71-6,24.25-12.72,26.55-52.49,26.54-35.55,0-56.45-22t-20.92-59.54q0-34.64,21.74-58t54-23.41q15.3,0,34.85,6.64,10.26,3.49,17,3.5a24.5,24.5,0,0,0,13-3.5Zm4.93,103.76q-2.19,29.93-18.94,45.54t-46.81,15.63a78.19,78.19,0,0,1-42.51-12.43v-1q17.49,10.14,42.23,10.14,27.08,0,44.16-15.32a47.84,47.84,0,0,0,12.3-16.77q4-9.3,5.33-24.62l.27-2.77ZM922.74,120.5q-12.43-8.81-23.5-8.8-35.41,0-35.41,59.6,0,27.13,8.2,45.18t23.1,23.34V241q-16.12-2.9-25.76-21.9t-9.64-48.07q0-62.39,38.82-62.38,13.13,0,24.19,10.26Zm49.62-15.08-1.5,2.3a348.29,348.29,0,0,0-23.78,40.9l-3.7-1.57,1.51-3q6.83-12.66,12-21l10.93-17.13,1.37-2.17Z"/><path class="cls-4" d="M319.38,182H360l-1.85,5.66h-3.75l-1.34,3.06q-4.77,10.83-4.77,13.43c0,.59,1,1.9,3,3.94l.83.83a11.55,11.55,0,0,0,1.27,1.12c.42.39.64.67.64.82a.69.69,0,0,1-.13.41c-.09.12-.17.18-.26.18a2.79,2.79,0,0,1-1.4-.53,7.8,7.8,0,0,1-1.84-1.41c-3.74-3.58-5.92-6.26-6.56-8.07q-2.1,0-5-2.18t-2.86-3.83a12.9,12.9,0,0,0,3.12.53,8.57,8.57,0,0,0,3.31-.65,7.55,7.55,0,0,0,2.73-1.88q1.47-4.18,2.17-5.77H338.6a53.85,53.85,0,0,1-3.56,8.77,8.19,8.19,0,0,1-3.57,3.89,8.74,8.74,0,0,1-5.35,1.12q2.36,3.82,8.53,9.3a1.06,1.06,0,0,1,.2.24.53.53,0,0,1,.06.23.32.32,0,0,1-.13.24.37.37,0,0,1-.25.12q-2,0-7.26-5.71l-3.95-4.19a51.09,51.09,0,0,1-4.13-4.71,9.35,9.35,0,0,1-1.72-3.18,2.32,2.32,0,0,1,.32-1.94,1.43,1.43,0,0,1,1.46-.77,4.79,4.79,0,0,1,3,1.36A11.91,11.91,0,0,1,325,196c1.19,0,2.37-.78,3.56-2.36a16.9,16.9,0,0,0,2.8-6H317.53Z"/><path class="cls-5" d="M356,169.15l4,4.66-5.41,3.71-4-4.71Z"/><path class="cls-6" d="M423.93,115.86h34.44l-1.84,5.66h-3.76l-1.34,3.06q-4.77,10.83-4.77,13.43c0,.58,1,1.9,3,3.94l.83.83a12.7,12.7,0,0,0,1.27,1.12c.43.39.64.66.64.82a.65.65,0,0,1-.13.41.33.33,0,0,1-.25.18,2.79,2.79,0,0,1-1.4-.53,8.41,8.41,0,0,1-1.85-1.41,43.26,43.26,0,0,1-4.52-4.89,16.78,16.78,0,0,1-10.06,3.06,16,16,0,0,1-7.7-2.12c-2.59-1.41-3.88-2.81-3.88-4.18a3.6,3.6,0,0,1,1.27-2.59,9.16,9.16,0,0,1,3.44-1.83,13.64,13.64,0,0,1-3.69-2.3,3.3,3.3,0,0,1-1.4-2.29,2.2,2.2,0,0,1,1.33-2,8.81,8.81,0,0,1,3.89-.7l4.32.17a8.08,8.08,0,0,0,1.47-.11c.42-.12.74-2.61.95-2.77s.34,1.53.51.71h-12.6Zm16.36,8c-.21.71-.34,1.18-.38,1.41a3.72,3.72,0,0,1-.76,1.71,1.66,1.66,0,0,1-1.27.65l-6.37-.18a10.05,10.05,0,0,0-2.86.36c-.77.23-1.15.51-1.15.82a1.41,1.41,0,0,0,.25.71,8.15,8.15,0,0,0,.83.76l2-.35a13.27,13.27,0,0,1,1.84-.23,2.81,2.81,0,0,1,2,1.06,8.39,8.39,0,0,1,1.6,2.82,33.86,33.86,0,0,0-6.24,2.18c-1.62.79-2.42,1.55-2.42,2.3a.83.83,0,0,0,.38.76,1.45,1.45,0,0,0,1,.3,14.52,14.52,0,0,0,5.35-1.47,64,64,0,0,0,7.89-4.3q0-2.9,3.82-11.66h-4.84Z"/><path class="cls-7" d="M322.3,277.14c-14.15-18.16-28-52.48,4.62-61.15a51,51,0,0,1,11.42-1.52c14.3-.26,27.75,1.76,41.65,3.06,19.58,1.91,39.55,3.68,59,.52,16.46-2.7,30.58-9.47,40-22.55.34-.52,1.51-2.21,1.86-2.74.85-1.47,2-3.29,2.71-4.83a74.12,74.12,0,0,0,5-12.51c3.36-11.08,4.73-22.8,5.26-34.28.31-6.09.34-12.85.25-18.94,0-1.59,0-3.18-.05-4.78.64,2.19,1.22,4.76,1.81,7,8.64,36.92,7,83.49-35.44,101.51-32,13-69.23,6.4-102.45,1.54-11.05-1.36-26.46-4.73-36.26.78-14.91,8.69-4.58,36.72.63,48.91Z"/><path class="cls-8" d="M373.61,214.47c-8.8-10.07-14.49-27.23,1.7-33.9,8.65-3.4,18-2.28,26.95-1.7,11.88.93,24.28,2.33,35.84,1.51,11.22-.78,21.39-3.71,28.89-11.22,13-13.57,14.57-34,16.7-51.49,9.38,34.88.49,72.16-44.54,75.23-15.37,1.09-29.67-1.64-44.44-3.89-6.37-.85-14.71-2.46-20.23,1.12-6.68,4.92-3,17.68-.87,24.34Z"/><path class="cls-9" d="M419.6,176.89c-6.81-7.9-13.26-24.56,1-29,3.87-1.14,8-.87,11.82-.74,8.65.4,17.68,2,25.68-.21s11.57-9.54,13.59-16.87c1.14-4,1.82-8.27,2.6-12.59a47.28,47.28,0,0,1,1.38,6.46c2.36,15.71-3.44,30.4-22.34,32.41-9.5,1.12-18.94-1.05-28.1-1.43-3.53-.17-5.95.82-6.83,3.88a17,17,0,0,0-.64,5.58,67.85,67.85,0,0,0,1.88,12.56Z"/><path class="cls-10" d="M180.28,30.08c-2,2.7-7.57,5.7-12.5,5.41,6.81-4.21,7.16-17-3.31-28A53.82,53.82,0,0,0,155.64,0a57.94,57.94,0,0,1,10.13,5.1C179.2,13.56,184.79,24,180.28,30.08Z"/><path class="cls-11" d="M233.87,54.8c-3.45.68-9.73-.72-13.08-4.08,8.07,1.31,17.83-7.68,18.5-22.35a48,48,0,0,0-.78-11.07A49.15,49.15,0,0,1,242,27.46C245.42,42.16,241.71,53.25,233.87,54.8Z"/><path class="cls-12" d="M108,42.36c-1.14,3.09-5.67,7.35-10.5,8.28,5.36-5.73,2-18.09-11.22-26.17a57.09,57.09,0,0,0-10.66-5.08,60,60,0,0,1,11.23,2.44C102.24,26.69,110.61,35.34,108,42.36Z"/><path class="cls-13" d="M56,80.88c.54,3.22-1.32,9-5.13,11.85,1.86-7.38-7.29-16.9-23.09-18.35a60.42,60.42,0,0,0-12,.1A59.61,59.61,0,0,1,27,71.8C43,69.49,54.76,73.55,56,80.88Z"/><path class="cls-14" d="M34.56,140.93c2.73,2.07,5.47,7.48,4.73,12-3.94-6.65-17.62-8.09-30.43.59A53.66,53.66,0,0,0,0,161a51.87,51.87,0,0,1,6.38-8.89C16.67,140.47,28.36,136.23,34.56,140.93Z"/><path class="cls-15" d="M54.55,209.09c3.43.79,8.4,4.6,9.82,9-6.63-4.46-19.67-.35-27.24,12.56a49.74,49.74,0,0,0-4.56,10.26,48.35,48.35,0,0,1,1.67-10.56C38.17,215.74,46.78,207.29,54.55,209.09Z"/><path class="cls-16" d="M398.81,147.45c-3.49-4.5-7.54-9.47-13.31-11.14-3.42-1-7-.42-10.47-.32a19.85,19.85,0,0,1-4.56-.29,17,17,0,0,1-2.21-.65c-1.7-.59-3-2.71-3.39-2.48s1.88,2.87,1.94,3c1.66,2.09,3.48,4.19,6.17,5.15a20.63,20.63,0,0,0,8.13.73c3.6-.21,7.15-.48,10.49,1a17.52,17.52,0,0,1,6.25,5H377l-1.84,5.65h19.35l-2.16,5.42a10.53,10.53,0,0,0-3.06-2.24,11.29,11.29,0,0,0-3.94-1.06,16.68,16.68,0,0,0-7.58,1.47q-2.87,1.47-2.86,3.95,0,3.47,3.94,7t7.77,3.53a13.92,13.92,0,0,0,3.44-.41,6.85,6.85,0,0,0,2.54-1.24,38.94,38.94,0,0,0,5,5.48,8.26,8.26,0,0,0,1.85,1.41,2.7,2.7,0,0,0,1.4.53c.09,0,.17-.06.26-.17a.74.74,0,0,0,.12-.42c0-.15-.21-.43-.63-.82a11.55,11.55,0,0,1-1.27-1.12l-.83-.82c-2-2-3-3.36-3-3.95q0-2.59,4.77-13.43l1.34-3.06h3.75l1.85-5.65Zm-7.91,15.31a22.93,22.93,0,0,1-5.35,2.94,14,14,0,0,1-5,1,3,3,0,0,1-1.21-.23c-.34-.2-.51-.41-.51-.65q0-2.48,3.25-4.54a13.06,13.06,0,0,1,7.13-2.06,6.43,6.43,0,0,1,2.74.47C391.36,161.27,391,162.29,390.9,162.76Z"/><path class="cls-17" d="M151.89,248.94c-52.13.4-96.1-38.29-103.62-85.3C40.05,114.19,71.11,65.46,122,48.39,160,35.37,204.74,43,234,69.11a90.22,90.22,0,0,1,16.66,19.61,130.42,130.42,0,0,0-20.58-15A118.54,118.54,0,0,0,198.2,61.05c-2.81-.63-6.28-1.3-9.13-1.75-3.44-.56-7.24-.86-10.74-1.12s-7.23-.28-10.72-.15c-.79,0-2.3.13-3.46.2-.74,0-1.47.1-2.2.17-1.17.11-2.76.24-3.44.32-27.71,3.09-53.8,17-70.27,37.88a89.05,89.05,0,0,0-12.35,91.6C83.53,206,97,221.43,113.82,232.5a126.18,126.18,0,0,0,38.07,16.44Z"/><path class="cls-18" d="M373.71,266.41c-6.78-.27-13.2,2.92-18.51,6.84s-9.88,8.66-15.37,12.35c-12,8-27.17,9.46-41.3,6.18-16.64-3.85-29-10.25-41.85-18.34-5.74-3.63-10.63-8.23-15.64-12.68L210.78,233.7c-3.17-2.85-6.26-5.63-9-8.07L185.42,211c-9.1-8.29-18.11-16.6-27.61-24.68l-1-.91c-.2-.19-.39-.37-.56-.55,2.12-.86,4.2-1.77,6.21-2.69a99.74,99.74,0,0,0,10.19-5.36c.38.27.77.54,1.17.8a61.47,61.47,0,0,0,51.68,6.78q12.42,10.82,24.82,10.82c2.74,0,2.29-.28,4.79-.69l-1.74,5.93a19.38,19.38,0,0,0,2.61,16.4c5,7.43,12.93,16.1,20.93,24.15,2.87,3,6.86,1.57,5.39-.06l-4-3.67c-2.6-2.8-5.13-5.59-7-7.81-4.77-5.75-5.27-13.38-2.39-20.12l13-30.44v0c4.39-10.87,9.44-23.52,13.85-33.53l4.46-10.21h12.52l6.16-18.84h-106l-6.15,18.84h69.93l-7.22,18.06a35.16,35.16,0,0,0-10.18-7.45,37.36,37.36,0,0,0-13.15-3.54q-15.72,0-25.26,4.91t-9.55,13.15a22.53,22.53,0,0,0,2.3,9.67h-.05a59.77,59.77,0,0,1-34.15,2.34c.85-.64,1.69-1.29,2.51-2,10.76-8.79,23.65-25,17.17-38.93-2.61-5.64-8-10.39-12.82-14.41-3.54-3-7.3-6-12-7.15A48.38,48.38,0,0,0,147.82,111a51.19,51.19,0,0,0-11.72,5.67c-1,.61,5.83,7,6.43,7.57.85.77,6.77,6.85,8.18,5.94A49.82,49.82,0,0,1,175,122.13a46.15,46.15,0,0,1,10.76.78c1.19,6.74-1.87,13.67-5.46,19.41a60.7,60.7,0,0,1-13.36,14.79,94.45,94.45,0,0,1-25.22,14.2l-.65-.57c-5.56-4.71-12.76-11-21-10.12a9.42,9.42,0,0,0-7.46,5.26,7.54,7.54,0,0,0,.86,8.88c4,5.05,9.46,10.42,15.41,13.51a17.52,17.52,0,0,0,11.35,1.48,60.22,60.22,0,0,0,6.76-1.6l.22.19.15.14.83.71L156,196c4.42,3.87,8.94,7.87,12.88,11.27,13.51,11.68,27.27,23.79,40.73,35.52l23.41,20.36c7.11,6.2,14.24,12.38,22.28,17.53A124,124,0,0,0,298,298.23a89,89,0,0,0,47.11-3.17,82.84,82.84,0,0,0,11.73-5.24c6.3-3.42,12.15-7.66,19-10s15.19-2.53,20.79,1.8C391.23,274.06,383.46,266.79,373.71,266.41Zm-138.48-104A43.49,43.49,0,0,1,259,155.59c3.95,0,7,.53,9.12,1.57q-2.76,7.86-3.4,10.21a75,75,0,0,1-17.82,9.81,46.58,46.58,0,0,1-16.76,3.34,9.64,9.64,0,0,1-4-.78c-1.13-.66-1.69-1.38-1.69-2.16Q224.41,169.33,235.23,162.46Z"/></g></g></svg>